<?xml version="1.0" encoding="UTF-8"?>
<svg width="88px" height="88px" viewBox="0 0 88 88" version="1.1" xmlns="http://www.w3.org/2000/svg" xmlns:xlink="http://www.w3.org/1999/xlink">
    <title>转贷</title>
    <g id="页面-1" stroke="none" stroke-width="1" fill="none" fill-rule="evenodd">
        <g id="首页备份" transform="translate(-664.000000, -780.000000)">
            <g id="转贷" transform="translate(664.000000, 780.000000)">
                <path d="M15.3833112,-4.14336123e-16 L72.6166888,6.21504185e-16 C77.9658012,-3.61111829e-16 79.9055187,0.556953667 81.8610742,1.60279622 C83.8166298,2.64863878 85.3513612,4.18337022 86.3972038,6.13892578 C87.4430463,8.09448133 88,10.0341988 88,15.3833112 L88,72.6166888 C88,77.9658012 87.4430463,79.9055187 86.3972038,81.8610742 C85.3513612,83.8166298 83.8166298,85.3513612 81.8610742,86.3972038 C79.9055187,87.4430463 77.9658012,88 72.6166888,88 L15.3833112,88 C10.0341988,88 8.09448133,87.4430463 6.13892578,86.3972038 C4.18337022,85.3513612 2.64863878,83.8166298 1.60279622,81.8610742 C0.556953667,79.9055187 1.2037061e-16,77.9658012 -2.07168062e-16,72.6166888 L4.14336123e-16,15.3833112 C-2.4074122e-16,10.0341988 0.556953667,8.09448133 1.60279622,6.13892578 C2.64863878,4.18337022 4.18337022,2.64863878 6.13892578,1.60279622 C8.09448133,0.556953667 10.0341988,2.4074122e-16 15.3833112,-4.14336123e-16 Z" id="矩形备份-32"></path>
                <path d="M5.1277704,10 L54.8722296,10 C56.6552671,10 57.3018396,10.1856512 57.9536914,10.5342654 C58.6055433,10.8828796 59.1171204,11.3944567 59.4657346,12.0463086 C59.8143488,12.6981604 60,13.3447329 60,15.1277704 L60,44.8722296 C60,46.6552671 59.8143488,47.3018396 59.4657346,47.9536914 C59.1171204,48.6055433 58.6055433,49.1171204 57.9536914,49.4657346 C57.3018396,49.8143488 56.6552671,50 54.8722296,50 L5.1277704,50 C3.34473292,50 2.69816044,49.8143488 2.04630859,49.4657346 C1.39445674,49.1171204 0.882879593,48.6055433 0.534265408,47.9536914 C0.185651222,47.3018396 -2.23324838e-16,46.6552671 3.84361049e-16,44.8722296 L1.38112041e-16,15.1277704 C-8.02470732e-17,13.3447329 0.185651222,12.6981604 0.534265408,12.0463086 C0.882879593,11.3944567 1.39445674,10.8828796 2.04630859,10.5342654 C2.69816044,10.1856512 3.34473292,10 5.1277704,10 Z" id="矩形备份-59" fill="#7BF1C2" opacity="0.787527902"></path>
                <path d="M33.1277704,38 L82.8722296,38 C84.6552671,38 85.3018396,38.1856512 85.9536914,38.5342654 C86.6055433,38.8828796 87.1171204,39.3944567 87.4657346,40.0463086 C87.8143488,40.6981604 88,41.3447329 88,43.1277704 L88,72.8722296 C88,74.6552671 87.8143488,75.3018396 87.4657346,75.9536914 C87.1171204,76.6055433 86.6055433,77.1171204 85.9536914,77.4657346 C85.3018396,77.8143488 84.6552671,78 82.8722296,78 L33.1277704,78 C31.3447329,78 30.6981604,77.8143488 30.0463086,77.4657346 C29.3944567,77.1171204 28.8828796,76.6055433 28.5342654,75.9536914 C28.1856512,75.3018396 28,74.6552671 28,72.8722296 L28,43.1277704 C28,41.3447329 28.1856512,40.6981604 28.5342654,40.0463086 C28.8828796,39.3944567 29.3944567,38.8828796 30.0463086,38.5342654 C30.6981604,38.1856512 31.3447329,38 33.1277704,38 Z" id="矩形备份-60" fill="#3C5BF6" opacity="0.787527902"></path>
                <path d="M85.25,28.75 C85.25,19.913444 78.086556,12.75 69.25,12.75" id="路径" stroke="#7CE2B9" stroke-width="3"></path>
                <path d="M19.25,74.75 C19.25,65.913444 12.086556,58.75 3.25,58.75" id="路径备份-2" stroke="#7CE2B9" stroke-width="3" transform="translate(11.250000, 66.750000) scale(-1, -1) translate(-11.250000, -66.750000) "></path>
                <text id="¥" font-family="AlibabaPuHuiTi-Heavy, Alibaba PuHuiTi" font-size="30" font-weight="800" fill="#FFFFFF">
                    <tspan x="49.5" y="69">¥</tspan>
                </text>
            </g>
        </g>
    </g>
</svg>