<?xml version="1.0" encoding="UTF-8"?>
<svg width="88px" height="88px" viewBox="0 0 88 88" version="1.1" xmlns="http://www.w3.org/2000/svg" xmlns:xlink="http://www.w3.org/1999/xlink">
    <title>贷款</title>
    <g id="页面-1" stroke="none" stroke-width="1" fill="none" fill-rule="evenodd">
        <g id="首页备份" transform="translate(-328.000000, -780.000000)">
            <g id="贷款" transform="translate(328.000000, 780.000000)">
                <path d="M15.3833112,-4.14336123e-16 L72.6166888,6.21504185e-16 C77.9658012,-3.61111829e-16 79.9055187,0.556953667 81.8610742,1.60279622 C83.8166298,2.64863878 85.3513612,4.18337022 86.3972038,6.13892578 C87.4430463,8.09448133 88,10.0341988 88,15.3833112 L88,72.6166888 C88,77.9658012 87.4430463,79.9055187 86.3972038,81.8610742 C85.3513612,83.8166298 83.8166298,85.3513612 81.8610742,86.3972038 C79.9055187,87.4430463 77.9658012,88 72.6166888,88 L15.3833112,88 C10.0341988,88 8.09448133,87.4430463 6.13892578,86.3972038 C4.18337022,85.3513612 2.64863878,83.8166298 1.60279622,81.8610742 C0.556953667,79.9055187 1.2037061e-16,77.9658012 -2.07168062e-16,72.6166888 L4.14336123e-16,15.3833112 C-2.4074122e-16,10.0341988 0.556953667,8.09448133 1.60279622,6.13892578 C2.64863878,4.18337022 4.18337022,2.64863878 6.13892578,1.60279622 C8.09448133,0.556953667 10.0341988,2.4074122e-16 15.3833112,-4.14336123e-16 Z" id="矩形备份-31"></path>
                <path d="M5.1277704,12 L66.8722296,12 C68.6552671,12 69.3018396,12.1856512 69.9536914,12.5342654 C70.6055433,12.8828796 71.1171204,13.3944567 71.4657346,14.0463086 C71.8143488,14.6981604 72,15.3447329 72,17.1277704 L72,54.8722296 C72,56.6552671 71.8143488,57.3018396 71.4657346,57.9536914 C71.1171204,58.6055433 70.6055433,59.1171204 69.9536914,59.4657346 C69.3018396,59.8143488 68.6552671,60 66.8722296,60 L5.1277704,60 C3.34473292,60 2.69816044,59.8143488 2.04630859,59.4657346 C1.39445674,59.1171204 0.882879593,58.6055433 0.534265408,57.9536914 C0.185651222,57.3018396 5.67020286e-16,56.6552671 -9.7589016e-16,54.8722296 L1.38112041e-16,17.1277704 C-8.02470732e-17,15.3447329 0.185651222,14.6981604 0.534265408,14.0463086 C0.882879593,13.3944567 1.39445674,12.8828796 2.04630859,12.5342654 C2.69816044,12.1856512 3.34473292,12 5.1277704,12 Z" id="矩形" fill="#7BF1C2" opacity="0.787527902"></path>
                <path d="M21.1277704,28 L82.8722296,28 C84.6552671,28 85.3018396,28.1856512 85.9536914,28.5342654 C86.6055433,28.8828796 87.1171204,29.3944567 87.4657346,30.0463086 C87.8143488,30.6981604 88,31.3447329 88,33.1277704 L88,70.8722296 C88,72.6552671 87.8143488,73.3018396 87.4657346,73.9536914 C87.1171204,74.6055433 86.6055433,75.1171204 85.9536914,75.4657346 C85.3018396,75.8143488 84.6552671,76 82.8722296,76 L21.1277704,76 C19.3447329,76 18.6981604,75.8143488 18.0463086,75.4657346 C17.3944567,75.1171204 16.8828796,74.6055433 16.5342654,73.9536914 C16.1856512,73.3018396 16,72.6552671 16,70.8722296 L16,33.1277704 C16,31.3447329 16.1856512,30.6981604 16.5342654,30.0463086 C16.8828796,29.3944567 17.3944567,28.8828796 18.0463086,28.5342654 C18.6981604,28.1856512 19.3447329,28 21.1277704,28 Z" id="矩形备份-21" fill="#3C5BF6" opacity="0.787527902"></path>
                <rect id="矩形" fill="#3E3F60" x="16" y="33" width="72" height="10"></rect>
                <rect id="矩形" fill="#FFFFFF" x="20" y="64" width="17" height="8"></rect>
                <rect id="矩形" fill="#FFFFFF" x="39" y="64" width="39" height="2"></rect>
                <rect id="矩形备份-49" fill="#FFFFFF" x="39" y="67" width="25" height="2"></rect>
                <rect id="矩形备份-58" fill="#FFFFFF" x="39" y="70" width="31" height="2"></rect>
            </g>
        </g>
    </g>
</svg>