<?xml version="1.0" encoding="UTF-8"?>
<svg width="89px" height="88px" viewBox="0 0 89 88" version="1.1" xmlns="http://www.w3.org/2000/svg" xmlns:xlink="http://www.w3.org/1999/xlink">
    <title>担保</title>
    <g id="页面-1" stroke="none" stroke-width="1" fill="none" fill-rule="evenodd">
        <g id="首页备份" transform="translate(-496.000000, -780.000000)">
            <g id="担保" transform="translate(496.000000, 780.000000)">
                <path d="M15.3833112,-4.14336123e-16 L72.6166888,6.21504185e-16 C77.9658012,-3.61111829e-16 79.9055187,0.556953667 81.8610742,1.60279622 C83.8166298,2.64863878 85.3513612,4.18337022 86.3972038,6.13892578 C87.4430463,8.09448133 88,10.0341988 88,15.3833112 L88,72.6166888 C88,77.9658012 87.4430463,79.9055187 86.3972038,81.8610742 C85.3513612,83.8166298 83.8166298,85.3513612 81.8610742,86.3972038 C79.9055187,87.4430463 77.9658012,88 72.6166888,88 L15.3833112,88 C10.0341988,88 8.09448133,87.4430463 6.13892578,86.3972038 C4.18337022,85.3513612 2.64863878,83.8166298 1.60279622,81.8610742 C0.556953667,79.9055187 1.2037061e-16,77.9658012 -2.07168062e-16,72.6166888 L4.14336123e-16,15.3833112 C-2.4074122e-16,10.0341988 0.556953667,8.09448133 1.60279622,6.13892578 C2.64863878,4.18337022 4.18337022,2.64863878 6.13892578,1.60279622 C8.09448133,0.556953667 10.0341988,2.4074122e-16 15.3833112,-4.14336123e-16 Z" id="矩形"></path>
                <path d="M51,6 C68.1208272,6 82,19.8791728 82,37 C82,54.1208272 68.1208272,68 51,68 C33.8791728,68 20,54.1208272 20,37 C20,19.8791728 33.8791728,6 51,6 Z M52.069176,24.6826058 C51.3617397,24.4681843 50.6382603,24.4681843 49.930824,24.6826058 C49.2233877,24.8970272 48.6349167,25.2229477 47.3741188,26.4837456 L47.3741188,26.4837456 L40.4837456,33.3741188 C39.2229477,34.6349167 38.8970272,35.2233877 38.6826058,35.930824 C38.4681843,36.6382603 38.4681843,37.3617397 38.6826058,38.069176 C38.8970272,38.7766123 39.2229477,39.3650833 40.4837456,40.6258812 L40.4837456,40.6258812 L47.3741188,47.5162544 C48.6349167,48.7770523 49.2233877,49.1029728 49.930824,49.3173942 C50.6382603,49.5318157 51.3617397,49.5318157 52.069176,49.3173942 C52.7766123,49.1029728 53.3650833,48.7770523 54.6258812,47.5162544 L54.6258812,47.5162544 L61.5162544,40.6258812 C62.7770523,39.3650833 63.1029728,38.7766123 63.3173942,38.069176 C63.5318157,37.3617397 63.5318157,36.6382603 63.3173942,35.930824 C63.1029728,35.2233877 62.7770523,34.6349167 61.5162544,33.3741188 L61.5162544,33.3741188 L54.6258812,26.4837456 C53.3650833,25.2229477 52.7766123,24.8970272 52.069176,24.6826058 Z" id="形状结合" fill="#7BF1C2" opacity="0.787527902"></path>
                <circle id="椭圆形" stroke="#7CE2B9" stroke-width="3" cx="51" cy="37" r="26"></circle>
                <path d="M0.382950392,51.5061493 C4.79396064,51.5061493 8.20977814,49.3500278 11.9094628,47.6798646 C16.110206,45.7735306 20.2224407,43.6629465 24.3687172,41.6204458 C25.8597427,40.8783372 27.4188516,40.326862 29.0596605,40.3745203 C30.5370694,40.408562 32.0212866,40.6808954 33.4850788,41.0213122 C37.03903,41.8383125 40.5589396,42.8323295 44.1265075,43.6152881 C47.7621588,44.4254801 51.4454685,45.0654637 55.1219698,45.7462972 C56.5857619,46.0186307 58.0631708,46.1820307 59.5541963,46.3590474 C60.2350299,46.4407475 60.5958717,46.8832893 60.7116134,47.8568813 C61.0996885,51.1248825 58.757621,54.1614002 55.9049284,55.0601005 C54.904013,55.3316342 53.871462,55.4690024 52.8343689,55.4686007 C51.0573933,55.536684 49.2736094,55.5503007 47.5102504,55.4686007 C45.372433,55.3800923 43.2482322,55.1758422 41.1104148,55.0056338 C39.7623643,54.8967005 38.4075055,54.7605337 37.059455,54.6311754 C36.2833048,54.563092 35.5139628,54.4745836 34.7378125,54.3860753 C33.2944454,54.2090586 33.1718953,55.1349922 33.4646538,56.2583676 C33.8118789,57.5996098 34.7514292,58.5119267 35.8203379,59.288077 C38.2713388,61.0173943 41.0287148,62.045453 43.8405574,62.9645783 C45.474558,63.4956285 47.1289836,64.0811454 48.8242592,64.3194371 C50.6488932,64.5645372 52.5348022,64.5168789 54.3934778,64.4351788 C55.8096117,64.3670955 57.2189372,64.0471037 58.6418793,63.849662 C60.56183,63.5773285 62.2775306,62.8284116 63.9796146,61.8956696 C66.1242403,60.6905942 68.3165244,59.5808355 70.5700836,58.5868184 C73.4295846,57.3340847 76.3367439,56.1970926 79.2643283,55.0941422 C80.7893955,54.522242 82.3757377,54.0933168 84.0301633,54.1273585 C87.1415727,54.1818252 88.66664,56.326451 88.5168566,59.1314853 C88.5032399,59.3357354 88.2717565,59.5808355 88.0879314,59.7101938 C84.7995053,61.8888613 81.5315041,64.0675287 78.2022279,66.2053461 C74.8184851,68.3635886 71.3802755,70.440131 67.9897243,72.5915651 C66.4033821,73.5991987 64.8919315,74.7225741 63.319206,75.7642495 C60.8682051,77.3778251 58.4172043,78.9914007 55.5713199,79.869676 C54.0066632,80.3836876 52.3396549,80.5052647 50.7169765,80.2237094 C45.9307165,79.2977758 41.1376481,78.3514171 36.3513881,77.3982501 C33.5395455,76.8399666 30.7208945,76.220408 27.8886268,75.6961662 C25.682726,75.2944743 23.4427835,75.0493743 21.2368828,74.6612991 C19.0241737,74.2868407 16.9067812,74.8246992 14.7961972,75.308091 C12.440513,75.8323329 2.74544289,79.2977758 0.382950392,79.869676 C0.250058862,79.9400149 0.250058862,51.5061493 0.382950392,51.5061493 Z" id="路径备份" fill="#3C5BF6" opacity="0.787527902"></path>
            </g>
        </g>
    </g>
</svg>